HIERARCHY
ROOT Hips
{
	OFFSET 0.000000 0.000000 0.000000
	CHANNELS 6 Xposition Yposition Zposition Xrotation Yrotation Zrotation
	JOINT LeftUpLeg_virtual
	{
		OFFSET 0.000000 0.000000 0.000000
		CHANNELS 3 Xrotation Yrotation Zrotation
		JOINT LeftUpLeg
		{
			OFFSET 13.026900 -6.336304 -1.092800
			CHANNELS 3 Xrotation Yrotation Zrotation
			JOINT LeftLeg
			{
				OFFSET 0.524474 -46.096886 9.782700
				CHANNELS 3 Xrotation Yrotation Zrotation
				JOINT LeftFoot
				{
					OFFSET -0.524474 -53.427422 -12.948200
					CHANNELS 3 Xrotation Yrotation Zrotation
					JOINT LeftToeBase
					{
						OFFSET 0.192200 -14.009700 16.364100
						CHANNELS 3 Xrotation Yrotation Zrotation
						JOINT LeftToe_End
						{
							OFFSET -1.784700 -0.561700 9.474800
							CHANNELS 3 Xrotation Yrotation Zrotation
							End Site
							{
								OFFSET 0 0 0
							}
						}
					}
				}
			}
		}
	}
	JOINT RightUpLeg_virtual
	{
		OFFSET 0.000000 0.000000 0.000000
		CHANNELS 3 Xrotation Yrotation Zrotation
		JOINT RightUpLeg
		{
			OFFSET -12.883000 -6.336304 -1.092800
			CHANNELS 3 Xrotation Yrotation Zrotation
			JOINT RightLeg
			{
				OFFSET -0.524587 -46.096825 9.782800
				CHANNELS 3 Xrotation Yrotation Zrotation
				JOINT RightFoot
				{
					OFFSET 0.524587 -53.427383 -12.948300
					CHANNELS 3 Xrotation Yrotation Zrotation
					JOINT RightToeBase
					{
						OFFSET -0.192200 -14.009700 16.364100
						CHANNELS 3 Xrotation Yrotation Zrotation
						JOINT RightToe_End
						{
							OFFSET 1.784700 -0.561700 9.474800
							CHANNELS 3 Xrotation Yrotation Zrotation
							End Site
							{
								OFFSET 0 0 0
							}
						}
					}
				}
			}
		}
	}
	JOINT Spine_virtual
	{
		OFFSET 0.000000 0.000000 0.000000
		CHANNELS 3 Xrotation Yrotation Zrotation
		JOINT Spine
		{
			OFFSET 0.072000 7.257294 -0.789700
			CHANNELS 3 Xrotation Yrotation Zrotation
			JOINT Spine1
			{
				OFFSET 0.000000 12.508769 -0.658067
				CHANNELS 3 Xrotation Yrotation Zrotation
				JOINT Spine1_split
				{
					OFFSET 0.000000 12.508769 -0.658067
					CHANNELS 3 Xrotation Yrotation Zrotation
					JOINT Spine2
					{
						OFFSET 0.000000 12.508769 -0.658067
						CHANNELS 3 Xrotation Yrotation Zrotation
						JOINT Neck_virtual
						{
							OFFSET 0.000000 0.000000 0.000000
							CHANNELS 3 Xrotation Yrotation Zrotation
							JOINT Neck
							{
								OFFSET 0.000000 14.033295 7.520400
								CHANNELS 3 Xrotation Yrotation Zrotation
								JOINT Head
								{
									OFFSET 0.000000 8.198502 5.703100
									CHANNELS 3 Xrotation Yrotation Zrotation
									JOINT HeadTop_End
									{
										OFFSET 0.000000 17.760803 13.332701
										CHANNELS 3 Xrotation Yrotation Zrotation
										End Site
										{
											OFFSET 0 0 0
										}
									}
								}
							}
						}
						JOINT LeftShoulder_virtual
						{
							OFFSET 0.000000 0.000000 0.000000
							CHANNELS 3 Xrotation Yrotation Zrotation
							JOINT LeftShoulder
							{
								OFFSET 6.292450 5.785301 -0.669000
								CHANNELS 3 Xrotation Yrotation Zrotation
								JOINT LeftShoulder_split
								{
									OFFSET 6.292450 5.785301 -0.669000
									CHANNELS 3 Xrotation Yrotation Zrotation
									JOINT LeftArm
									{
										OFFSET 13.907140 -6.093903 1.965100
										CHANNELS 3 Xrotation Yrotation Zrotation
										JOINT LeftForeArm
										{
											OFFSET 34.140198 0.000000 0.000000
											CHANNELS 3 Xrotation Yrotation Zrotation
											JOINT LeftHand
											{
												OFFSET 40.960209 0.000000 0.000000
												CHANNELS 3 Xrotation Yrotation Zrotation
												End Site
												{
													OFFSET 0 0 0
												}
											}
										}
									}
								}
							}
						}
						JOINT RightShoulder_virtual
						{
							OFFSET 0.000000 0.000000 0.000000
							CHANNELS 3 Xrotation Yrotation Zrotation
							JOINT RightShoulder
							{
								OFFSET -6.292450 5.785301 -0.669000
								CHANNELS 3 Xrotation Yrotation Zrotation
								JOINT RightShoulder_split
								{
									OFFSET -6.292450 5.785301 -0.669000
									CHANNELS 3 Xrotation Yrotation Zrotation
									JOINT RightArm
									{
										OFFSET -13.907140 -6.093903 1.965100
										CHANNELS 3 Xrotation Yrotation Zrotation
										JOINT RightForeArm
										{
											OFFSET -34.140198 0.000000 0.000000
											CHANNELS 3 Xrotation Yrotation Zrotation
											JOINT RightHand
											{
												OFFSET -40.960209 0.000000 0.000000
												CHANNELS 3 Xrotation Yrotation Zrotation
												End Site
												{
													OFFSET 0 0 0
												}
											}
										}
									}
								}
							}
						}
					}
				}
			}
		}
	}
}
MOTION
Frames: 10
Frame Time: 0.03333333
0.635870 93.908951 4.831913 0.000000 0.000000 0.000000 0.647395 -40.020244 4.605594 -40.407747 9.801861 20.238149 59.790308 -9.463130 -0.265656 -21.309142 -12.246412 -9.995168 -1.594214 0.000008 -0.000005 0.000000 0.000000 0.000000 0.647395 -40.020244 4.605594 -25.102161 -7.591707 -33.670732 54.940245 -9.025347 -5.102632 -21.008041 -7.757013 26.214872 -1.421722 -0.000012 -0.000002 0.000000 0.000000 0.000000 0.647395 -40.020244 4.605594 9.083248 12.797972 -4.263682 1.672187 3.532448 -1.569845 0.000000 0.000000 0.000000 0.000000 0.000000 0.000000 1.638522 3.528963 -1.543016 -4.862642 12.139437 2.331067 4.632082 10.710224 1.658943 0.000000 0.000000 0.000000 1.638522 3.528963 -1.543016 0.209301 2.974846 -2.473006 0.000000 0.000000 0.000000 0.123066 -7.830009 -46.663671 -179.999991 -48.219961 -179.999991 0.000000 0.000000 0.000000 1.638522 3.528963 -1.543016 -0.105683 15.835792 -4.186724 0.000000 0.000000 0.000000 -49.344524 18.610568 60.543412 179.999978 75.519940 -179.999991 0.000000 0.000000 0.000000 
1.334258 94.226837 4.968903 0.000000 0.000000 0.000000 1.546163 -47.461403 5.613119 -38.113494 11.730151 21.600866 59.240724 -9.557292 -1.604179 -22.616189 -7.275541 -9.544034 -1.594214 0.000007 -0.000005 0.000000 0.000000 0.000000 1.546163 -47.461403 5.613119 -29.207665 -4.454088 -31.607008 54.559572 -6.236519 -7.918947 -19.699333 -6.256664 25.111383 -1.421722 -0.000012 -0.000002 0.000000 0.000000 0.000000 1.546163 -47.461403 5.613119 9.310408 13.514118 -4.352993 1.781057 3.670398 -1.552474 0.000000 0.000000 0.000000 0.000000 0.000000 0.000000 1.745710 3.669437 -1.526468 -4.852180 13.507688 1.989611 5.455246 14.636201 -0.622791 0.000000 0.000000 0.000000 1.745710 3.669437 -1.526468 0.097886 3.823974 -2.193748 0.000000 0.000000 0.000000 0.257138 0.811128 -40.840249 179.999991 -46.688106 179.999991 0.000000 0.000000 0.000000 1.745710 3.669437 -1.526468 0.200217 11.353362 -3.117912 0.000000 0.000000 0.000000 -51.036966 23.059965 69.349035 -179.999991 73.542307 -179.999991 0.000000 0.000000 0.000000 
1.920353 94.404350 4.855301 0.000000 0.000000 0.000000 3.227089 -54.963325 6.579729 -36.156624 12.439052 22.825114 58.975692 -9.518517 -2.769331 -24.098161 -1.336480 -9.304617 -1.594214 0.000009 -0.000005 0.000000 0.000000 0.000000 3.227089 -54.963325 6.579729 -33.964700 -2.544429 -28.599624 54.633942 -1.936138 -9.922835 -18.428556 -5.132444 22.811961 -1.421722 -0.000012 -0.000002 0.000000 0.000000 0.000000 3.227089 -54.963325 6.579729 9.097886 12.990329 -4.294330 1.764131 3.368149 -1.656707 0.000000 0.000000 0.000000 0.000000 0.000000 0.000000 1.742111 3.364810 -1.629984 -5.053196 15.121590 2.024822 6.249761 20.624673 -3.332859 0.000000 0.000000 0.000000 1.742111 3.364810 -1.629984 -0.179994 5.325325 -0.579759 0.000000 0.000000 0.000000 -7.789435 6.885914 -33.013149 -179.999991 -52.729754 179.999991 0.000000 0.000000 0.000000 1.742111 3.364810 -1.629984 0.645876 8.044691 -2.081286 0.000000 0.000000 0.000000 -52.775666 29.458524 75.713856 -179.999964 72.419280 179.999950 0.000000 0.000000 0.000000 
2.398306 94.296471 4.432102 0.000000 0.000000 0.000000 3.362870 -59.657522 5.642029 -34.605037 11.376162 23.213349 59.501562 -9.488195 -2.816057 -25.269364 3.798191 -9.363101 -1.594214 0.000011 -0.000005 0.000000 0.000000 0.000000 3.362870 -59.657522 5.642029 -36.554305 -2.017402 -26.369526 55.134199 0.970107 -9.980953 -17.623672 -3.951063 20.669679 -1.421721 -0.000014 -0.000002 0.000000 0.000000 0.000000 3.362870 -59.657522 5.642029 9.269806 10.913328 -3.791000 1.947402 2.500738 -1.752771 0.000000 0.000000 0.000000 0.000000 0.000000 0.000000 1.954959 2.491328 -1.724667 -5.559964 16.496964 2.373658 6.629184 26.689478 -5.918443 0.000000 0.000000 0.000000 1.954959 2.491328 -1.724667 -0.413428 6.098899 1.409510 0.000000 0.000000 0.000000 -19.127557 3.078818 -25.363937 179.999978 -72.730545 179.999978 0.000000 0.000000 0.000000 1.954959 2.491328 -1.724667 1.134236 6.092599 -1.214579 0.000000 0.000000 0.000000 -52.963049 35.555086 78.044535 -179.999909 69.886209 179.999923 0.000000 0.000000 0.000000 
2.676128 93.914810 3.870712 0.000000 0.000000 0.000000 0.851219 -59.389916 1.960091 -34.107216 8.823604 22.754331 60.893670 -9.477804 -1.303972 -25.614246 6.014679 -9.962881 -1.594214 0.000010 -0.000005 0.000000 0.000000 0.000000 0.851219 -59.389916 1.960091 -36.125526 -3.844733 -25.451160 55.729139 1.353067 -9.977440 -17.777838 -3.537185 19.984732 -1.421722 -0.000013 -0.000001 0.000000 0.000000 0.000000 0.851219 -59.389916 1.960091 9.995681 7.011465 -2.767244 2.441094 0.957124 -1.783374 0.000000 0.000000 0.000000 0.000000 0.000000 0.000000 2.479789 0.937991 -1.751811 -6.876898 17.554559 2.844257 6.782636 31.272496 -8.010909 0.000000 0.000000 0.000000 2.479789 0.937991 -1.751811 -0.408906 5.482843 2.468310 0.000000 0.000000 0.000000 -26.135934 -7.509546 -18.397055 0.000098 -77.254835 0.000100 0.000000 0.000000 0.000000 2.479789 0.937991 -1.751811 1.474614 5.237588 -0.499379 0.000000 0.000000 0.000000 -50.849447 40.216506 77.450554 179.999978 66.153920 -179.999964 0.000000 0.000000 0.000000 
2.632257 93.443802 3.529102 0.000000 0.000000 0.000000 -1.020737 -54.824692 -1.091694 -35.334478 5.606444 21.672969 62.477776 -7.742847 1.303204 -25.091619 3.681923 -11.822641 -1.594214 0.000010 -0.000005 0.000000 0.000000 0.000000 -1.020737 -54.824692 -1.091694 -33.938787 -7.276087 -25.939136 56.033844 -0.208073 -9.924446 -18.721707 -3.975285 20.747294 -1.421722 -0.000013 -0.000002 0.000000 0.000000 0.000000 -1.020737 -54.824692 -1.091694 10.405793 2.265756 -1.697997 2.813808 -0.840669 -1.801726 0.000000 0.000000 0.000000 0.000000 0.000000 0.000000 2.865115 -0.871772 -1.777145 -8.060989 17.967639 3.684604 6.664683 33.790722 -8.128765 0.000000 0.000000 0.000000 2.865115 -0.871772 -1.777145 -0.404166 5.289125 2.767746 0.000000 0.000000 0.000000 -29.128110 -18.691752 -15.027610 0.000021 -54.533101 0.000028 0.000000 0.000000 0.000000 2.865115 -0.871772 -1.777145 1.537940 5.623554 0.273585 0.000000 0.000000 0.000000 -45.141772 43.252706 74.287426 -179.999978 61.784846 179.999978 0.000000 0.000000 0.000000 
2.252967 93.178078 3.606941 0.000000 0.000000 0.000000 -0.817871 -49.650718 -1.883749 -37.308713 3.070792 20.610909 63.262489 -6.259579 3.041618 -24.529260 0.135616 -13.199477 -1.594214 0.000008 -0.000005 0.000000 0.000000 0.000000 -0.817871 -49.650718 -1.883749 -31.918294 -10.628503 -26.738574 55.772815 -2.096836 -9.865512 -19.677736 -4.780196 22.012450 -1.421722 -0.000014 -0.000002 0.000000 0.000000 0.000000 -0.817871 -49.650718 -1.883749 9.814071 -0.099770 -1.305235 2.618570 -1.496523 -1.851615 0.000000 0.000000 0.000000 0.000000 0.000000 0.000000 2.668892 -1.533099 -1.848476 -8.141427 17.054678 4.403662 6.554521 32.938512 -7.402364 0.000000 0.000000 0.000000 2.668892 -1.533099 -1.848476 -0.570873 6.342881 3.155751 0.000000 0.000000 0.000000 -37.457358 -20.769333 -24.567641 0.000016 -55.027542 0.000011 0.000000 0.000000 0.000000 2.668892 -1.533099 -1.848476 1.359586 8.623770 0.639041 0.000000 0.000000 0.000000 -33.918091 42.555101 66.380874 179.999991 56.897436 -179.999964 0.000000 0.000000 0.000000 
1.785496 93.214951 3.920444 0.000000 0.000000 0.000000 0.083850 -45.663721 -1.195838 -38.647878 1.313497 19.848535 63.052126 -5.765967 2.657351 -24.017424 -2.802970 -13.418029 -1.594214 0.000012 -0.000005 0.000000 0.000000 0.000000 0.083850 -45.663721 -1.195838 -30.399584 -12.542147 -27.604922 55.149420 -3.936970 -9.817016 -20.254171 -5.592660 23.375841 -1.421722 -0.000012 -0.000001 0.000000 0.000000 0.000000 0.083850 -45.663721 -1.195838 8.958077 1.360388 -1.828076 2.162359 -0.471325 -2.057360 0.000000 0.000000 0.000000 0.000000 0.000000 0.000000 2.213537 -0.510283 -2.077777 -8.191341 15.117751 4.557061 6.698156 27.822168 -5.424514 0.000000 0.000000 0.000000 2.213537 -0.510283 -2.077777 -0.542956 6.472653 2.537707 0.000000 0.000000 0.000000 -41.281885 -17.745069 -38.892255 -0.000013 -68.139661 -0.000028 0.000000 0.000000 0.000000 2.213537 -0.510283 -2.077777 1.081290 13.817782 0.055548 0.000000 0.000000 0.000000 -22.672664 37.619009 56.570588 179.999978 53.530392 -179.999978 0.000000 0.000000 0.000000 
1.458832 93.301300 4.241447 0.000000 0.000000 0.000000 0.588727 -41.509734 0.030542 -39.926383 0.681453 18.877555 62.478978 -5.468413 1.786172 -23.199007 -6.623357 -13.214466 -1.594214 0.000012 -0.000005 0.000000 0.000000 0.000000 0.588727 -41.509734 0.030542 -28.345008 -13.135953 -29.097142 54.584690 -6.621656 -9.141370 -20.600651 -6.388833 25.217279 -1.421722 -0.000013 -0.000003 0.000000 0.000000 0.000000 0.588727 -41.509734 0.030542 9.061447 4.639151 -2.778302 2.097413 1.358759 -2.365951 0.000000 0.000000 0.000000 0.000000 0.000000 0.000000 2.147537 1.315774 -2.412279 -8.307089 12.955915 3.488488 5.862124 20.042852 -2.320389 0.000000 0.000000 0.000000 2.147537 1.315774 -2.412279 -0.233599 4.976133 0.838934 0.000000 0.000000 0.000000 -33.836983 -18.902378 -46.777244 0.000826 -82.683593 0.000822 0.000000 0.000000 0.000000 2.147537 1.315774 -2.412279 0.899565 19.298018 -1.942170 0.000000 0.000000 0.000000 -19.486829 31.265338 47.141658 179.999978 55.611653 -179.999978 0.000000 0.000000 0.000000 
1.270048 93.114594 4.463360 0.000000 0.000000 0.000000 0.888530 -36.850482 1.151094 -42.549323 2.857044 16.749623 62.749064 -8.254190 3.754317 -22.035394 -8.541583 -11.674436 -1.594214 0.000008 -0.000005 0.000000 0.000000 0.000000 0.888530 -36.850482 1.151094 -25.944277 -13.251475 -31.160539 54.711120 -8.903256 -6.993017 -21.056775 -7.729124 26.608925 -1.421722 -0.000013 -0.000001 0.000000 0.000000 0.000000 0.888530 -36.850482 1.151094 9.757175 7.929782 -3.547620 2.339625 3.193123 -2.478258 0.000000 0.000000 0.000000 0.000000 0.000000 0.000000 2.377908 3.151549 -2.547518 -7.758097 10.778098 2.200925 4.428780 12.171272 0.320724 0.000000 0.000000 0.000000 2.377908 3.151549 -2.547518 0.039012 3.515995 -0.662888 0.000000 0.000000 0.000000 -21.004889 -23.158100 -50.164072 -179.999609 -85.361430 -179.999636 0.000000 0.000000 0.000000 2.377908 3.151549 -2.547518 1.360436 24.207242 -5.578966 0.000000 0.000000 0.000000 -23.607746 24.524226 37.393486 -179.999991 65.420180 -179.999991 0.000000 0.000000 0.000000 
